<svg width="322" height="386" viewBox="0 0 322 386" fill="none" xmlns="http://www.w3.org/2000/svg">
<path d="M248.536 0.599609H73.464C32.9287 0.599609 0.0708008 33.4575 0.0708008 73.9928V311.867C0.0708008 352.402 32.9287 385.26 73.464 385.26H248.536C289.071 385.26 321.929 352.402 321.929 311.867V73.9928C321.929 33.4575 289.071 0.599609 248.536 0.599609ZM259.127 186.262V276.244C259.127 303.934 236.69 326.371 209 326.371H113C85.3098 326.371 62.8729 303.934 62.8729 276.244V109.594C62.8729 81.9042 85.3098 59.4673 113 59.4673H209C236.69 59.4673 259.127 81.9042 259.127 109.594V183.881" fill="#DADEE5"/>
<path d="M228.927 164.506H288.582C289.454 164.506 290.156 165.208 290.156 166.08V219.78C290.156 220.652 289.454 221.354 288.582 221.354H228.927C228.055 221.354 227.354 220.652 227.354 219.78V166.08C227.354 165.208 228.055 164.506 228.927 164.506Z" fill="#1D58FF"/>
<path d="M269.994 182.86H247.536V203H269.994V182.86Z" fill="#DFE3EA"/>
</svg>
