<svg width="436" height="522" viewBox="0 0 436 522" fill="none" xmlns="http://www.w3.org/2000/svg">
<path d="M335.942 0.941895H99.2328C44.4262 0.941895 0 45.3681 0 100.175V421.797C0 476.604 44.4262 521.03 99.2328 521.03H335.942C390.749 521.03 435.175 476.604 435.175 421.797V100.175C435.175 45.3681 390.749 0.941895 335.942 0.941895ZM350.262 252V373.662C350.262 411.1 319.926 441.437 282.487 441.437H152.688C115.249 441.437 84.9129 411.1 84.9129 373.662V148.339C84.9129 110.9 115.249 80.5639 152.688 80.5639H282.487C319.926 80.5639 350.262 110.9 350.262 148.339V248.779" fill="#282828"/>
<path d="M309.949 222.584H390.606C391.785 222.584 392.734 223.533 392.734 224.712V297.318C392.734 298.497 391.785 299.446 390.606 299.446H309.949C308.77 299.446 307.821 298.497 307.821 297.318V224.712C307.821 223.533 308.77 222.584 309.949 222.584Z" fill="#0267FF"/>
<path d="M365.446 247.37H335.081V274.601H365.446V247.37Z" fill="#282828"/>
</svg>
